<svg width="26" height="26" viewBox="0 0 26 26" fill="none" xmlns="http://www.w3.org/2000/svg">
<path d="M19.3248 7.32012L17.4637 5.45898L8.25449 14.6656L7.8584 16.9254L10.1156 16.5268L19.3248 7.32012Z" fill="white" fill-opacity="0.25"/>
<path d="M22.3438 21.2266H3.65625C3.20684 21.2266 2.84375 21.5896 2.84375 22.0391V22.9531C2.84375 23.0648 2.93516 23.1562 3.04688 23.1562H22.9531C23.0648 23.1562 23.1562 23.0648 23.1562 22.9531V22.0391C23.1562 21.5896 22.7932 21.2266 22.3438 21.2266ZM6.54316 19.0938C6.59395 19.0938 6.64473 19.0887 6.69551 19.0811L10.9662 18.332C11.017 18.3219 11.0652 18.299 11.1008 18.2609L21.8639 7.49785C21.8874 7.47436 21.9061 7.44646 21.9188 7.41574C21.9316 7.38503 21.9381 7.3521 21.9381 7.31885C21.9381 7.28559 21.9316 7.25267 21.9188 7.22195C21.9061 7.19123 21.8874 7.16333 21.8639 7.13984L17.6439 2.91738C17.5957 2.86914 17.5322 2.84375 17.4637 2.84375C17.3951 2.84375 17.3316 2.86914 17.2834 2.91738L6.52031 13.6805C6.48223 13.7186 6.45937 13.7643 6.44922 13.815L5.7002 18.0857C5.67549 18.2218 5.68432 18.3618 5.72591 18.4936C5.7675 18.6254 5.84059 18.7452 5.93887 18.8424C6.10645 19.0049 6.31719 19.0938 6.54316 19.0938ZM8.25449 14.6656L17.4637 5.45898L19.3248 7.32012L10.1156 16.5268L7.8584 16.9254L8.25449 14.6656Z" fill="white"/>
</svg>
