<svg width="17" height="18" viewBox="0 0 17 18" fill="none" xmlns="http://www.w3.org/2000/svg">
<path d="M5.5 2.00001C5.23478 2.00001 4.98043 2.10537 4.79289 2.2929C4.60536 2.48044 4.5 2.73479 4.5 3.00001C4.5 3.26523 4.60536 3.51958 4.79289 3.70712C4.98043 3.89465 5.23478 4.00001 5.5 4.00001C5.76522 4.00001 6.01957 3.89465 6.20711 3.70712C6.39464 3.51958 6.5 3.26523 6.5 3.00001C6.5 2.73479 6.39464 2.48044 6.20711 2.2929C6.01957 2.10537 5.76522 2.00001 5.5 2.00001ZM2.67 2.00001C2.8766 1.41448 3.25974 0.907443 3.7666 0.548799C4.27346 0.190154 4.87909 -0.00244141 5.5 -0.00244141C6.12091 -0.00244141 6.72654 0.190154 7.2334 0.548799C7.74026 0.907443 8.1234 1.41448 8.33 2.00001H15.5C15.7652 2.00001 16.0196 2.10537 16.2071 2.2929C16.3946 2.48044 16.5 2.73479 16.5 3.00001C16.5 3.26523 16.3946 3.51958 16.2071 3.70712C16.0196 3.89465 15.7652 4.00001 15.5 4.00001H8.33C8.1234 4.58554 7.74026 5.09258 7.2334 5.45122C6.72654 5.80986 6.12091 6.00246 5.5 6.00246C4.87909 6.00246 4.27346 5.80986 3.7666 5.45122C3.25974 5.09258 2.8766 4.58554 2.67 4.00001H1.5C1.23478 4.00001 0.98043 3.89465 0.792893 3.70712C0.605357 3.51958 0.5 3.26523 0.5 3.00001C0.5 2.73479 0.605357 2.48044 0.792893 2.2929C0.98043 2.10537 1.23478 2.00001 1.5 2.00001H2.67ZM11.5 8.00001C11.2348 8.00001 10.9804 8.10537 10.7929 8.2929C10.6054 8.48044 10.5 8.73479 10.5 9.00001C10.5 9.26523 10.6054 9.51958 10.7929 9.70712C10.9804 9.89465 11.2348 10 11.5 10C11.7652 10 12.0196 9.89465 12.2071 9.70712C12.3946 9.51958 12.5 9.26523 12.5 9.00001C12.5 8.73479 12.3946 8.48044 12.2071 8.2929C12.0196 8.10537 11.7652 8.00001 11.5 8.00001ZM8.67 8.00001C8.8766 7.41448 9.25974 6.90744 9.7666 6.5488C10.2735 6.19015 10.8791 5.99756 11.5 5.99756C12.1209 5.99756 12.7265 6.19015 13.2334 6.5488C13.7403 6.90744 14.1234 7.41448 14.33 8.00001H15.5C15.7652 8.00001 16.0196 8.10537 16.2071 8.2929C16.3946 8.48044 16.5 8.73479 16.5 9.00001C16.5 9.26523 16.3946 9.51958 16.2071 9.70712C16.0196 9.89465 15.7652 10 15.5 10H14.33C14.1234 10.5855 13.7403 11.0926 13.2334 11.4512C12.7265 11.8099 12.1209 12.0025 11.5 12.0025C10.8791 12.0025 10.2735 11.8099 9.7666 11.4512C9.25974 11.0926 8.8766 10.5855 8.67 10H1.5C1.23478 10 0.98043 9.89465 0.792893 9.70712C0.605357 9.51958 0.5 9.26523 0.5 9.00001C0.5 8.73479 0.605357 8.48044 0.792893 8.2929C0.98043 8.10537 1.23478 8.00001 1.5 8.00001H8.67ZM5.5 14C5.23478 14 4.98043 14.1054 4.79289 14.2929C4.60536 14.4804 4.5 14.7348 4.5 15C4.5 15.2652 4.60536 15.5196 4.79289 15.7071C4.98043 15.8947 5.23478 16 5.5 16C5.76522 16 6.01957 15.8947 6.20711 15.7071C6.39464 15.5196 6.5 15.2652 6.5 15C6.5 14.7348 6.39464 14.4804 6.20711 14.2929C6.01957 14.1054 5.76522 14 5.5 14ZM2.67 14C2.8766 13.4145 3.25974 12.9074 3.7666 12.5488C4.27346 12.1902 4.87909 11.9976 5.5 11.9976C6.12091 11.9976 6.72654 12.1902 7.2334 12.5488C7.74026 12.9074 8.1234 13.4145 8.33 14H15.5C15.7652 14 16.0196 14.1054 16.2071 14.2929C16.3946 14.4804 16.5 14.7348 16.5 15C16.5 15.2652 16.3946 15.5196 16.2071 15.7071C16.0196 15.8947 15.7652 16 15.5 16H8.33C8.1234 16.5855 7.74026 17.0926 7.2334 17.4512C6.72654 17.8099 6.12091 18.0025 5.5 18.0025C4.87909 18.0025 4.27346 17.8099 3.7666 17.4512C3.25974 17.0926 2.8766 16.5855 2.67 16H1.5C1.23478 16 0.98043 15.8947 0.792893 15.7071C0.605357 15.5196 0.5 15.2652 0.5 15C0.5 14.7348 0.605357 14.4804 0.792893 14.2929C0.98043 14.1054 1.23478 14 1.5 14H2.67Z" fill="white"/>
</svg>
