<svg width="25" height="24" viewBox="0 0 25 24" fill="none" xmlns="http://www.w3.org/2000/svg">
<path d="M2.40918 0V14.7273H7.78191L12.5001 6.54545H24.5001V0H2.40918Z" fill="#DB4437"/>
<path d="M2.40918 0V14.7273H7.78191L12.5001 6.54545H24.5001V0H2.40918Z" fill="url(#paint0_linear_489_289)"/>
<path d="M0.5 24H11.9273L17.2455 18.6818V14.7273H7.75455L0.5 2.25V24Z" fill="#0F9D58"/>
<path d="M0.5 24H11.9273L17.2455 18.6818V14.7273H7.75455L0.5 2.25V24Z" fill="url(#paint1_linear_489_289)"/>
<path d="M12.5 6.54547L17.2182 14.7273L11.9546 24H24.5V6.54547H12.5Z" fill="#FFCD40"/>
<path d="M12.5 6.54547L17.2182 14.7273L11.9546 24H24.5V6.54547H12.5Z" fill="url(#paint2_linear_489_289)"/>
<path d="M7.90463 14.6864L2.40918 5.50909L7.72736 14.7545L7.90463 14.6864Z" fill="#3E2723" fill-opacity="0.1"/>
<path d="M17.109 14.9045L16.9999 14.85L11.9136 23.9863L17.1363 14.85L17.109 14.9045Z" fill="#263238" fill-opacity="0.1"/>
<path d="M12.5 6.54547V9.40911L23.1909 6.54547H12.5Z" fill="url(#paint3_radial_489_289)"/>
<path d="M2.40918 5.52271L10.2092 13.3227L7.78191 14.7273L2.40918 5.52271Z" fill="url(#paint4_radial_489_289)"/>
<path d="M11.9272 24L14.7909 13.3228L17.2182 14.7273L11.9272 24Z" fill="url(#paint5_radial_489_289)"/>
<path d="M12.5 17.4546C15.5124 17.4546 17.9545 15.0125 17.9545 12C17.9545 8.98755 15.5124 6.54547 12.5 6.54547C9.48749 6.54547 7.04541 8.98755 7.04541 12C7.04541 15.0125 9.48749 17.4546 12.5 17.4546Z" fill="#F1F1F1"/>
<path d="M12.4999 16.3636C14.9098 16.3636 16.8635 14.41 16.8635 12C16.8635 9.59002 14.9098 7.63635 12.4999 7.63635C10.0899 7.63635 8.13623 9.59002 8.13623 12C8.13623 14.41 10.0899 16.3636 12.4999 16.3636Z" fill="#4285F4"/>
<path d="M12.5 24C19.1274 24 24.5 18.6274 24.5 12C24.5 5.37258 19.1274 0 12.5 0C5.87258 0 0.5 5.37258 0.5 12C0.5 18.6274 5.87258 24 12.5 24Z" fill="url(#paint6_radial_489_289)"/>
<path d="M17.2182 14.7273C16.7387 15.5538 16.0505 16.2399 15.2224 16.7169C14.3944 17.1938 13.4556 17.4449 12.5 17.4449C11.5444 17.4449 10.6056 17.1938 9.77756 16.7169C8.94952 16.2399 8.2613 15.5538 7.78182 14.7273L0.5 2.38635L7.78182 14.8636C8.2613 15.6902 8.94952 16.3763 9.77756 16.8533C10.6056 17.3302 11.5444 17.5812 12.5 17.5812C13.4556 17.5812 14.3944 17.3302 15.2224 16.8533C16.0505 16.3763 16.7387 15.6902 17.2182 14.8636V14.7273Z" fill="white" fill-opacity="0.1"/>
<path d="M12.6364 6.54547H12.5682C14.0148 6.54547 15.4022 7.12014 16.4251 8.14307C17.4481 9.166 18.0227 10.5534 18.0227 12C18.0227 13.4467 17.4481 14.834 16.4251 15.857C15.4022 16.8799 14.0148 17.4546 12.5682 17.4546H12.6364C15.6364 17.4546 18.0909 15 18.0909 12C18.0909 9.00002 15.6364 6.54547 12.6364 6.54547ZM12.5 23.8637C15.6708 23.8637 18.7128 22.6088 20.9613 20.3731C23.2098 18.1374 24.482 15.1026 24.5 11.9318V12C24.5 15.1826 23.2357 18.2349 20.9853 20.4853C18.7348 22.7357 15.6826 24 12.5 24C9.3174 24 6.26516 22.7357 4.01472 20.4853C1.76428 18.2349 0.5 15.1826 0.5 12V11.9318C0.518016 15.1026 1.79025 18.1374 4.03873 20.3731C6.28722 22.6088 9.32918 23.8637 12.5 23.8637Z" fill="#3E2723" fill-opacity="0.1"/>
<path d="M17.2727 14.9045C17.6535 14.2511 17.8917 13.5244 17.9717 12.7724C18.0516 12.0203 17.9714 11.2598 17.7364 10.5409C17.9484 11.236 18.0118 11.968 17.9225 12.6892C17.8333 13.4104 17.5933 14.1048 17.2182 14.7273L12.0909 24L17.3 14.9318L17.2727 14.9045ZM12.5 0.136364C15.6708 0.136312 18.7128 1.39123 20.9613 3.62694C23.2098 5.86265 24.482 8.89741 24.5 12.0682V12C24.5 8.8174 23.2357 5.76516 20.9853 3.51472C18.7348 1.26428 15.6826 0 12.5 0C9.3174 0 6.26516 1.26428 4.01472 3.51472C1.76428 5.76516 0.5 8.8174 0.5 12V12.0682C0.518016 8.89741 1.79025 5.86265 4.03873 3.62694C6.28722 1.39123 9.32918 0.136312 12.5 0.136364Z" fill="white" fill-opacity="0.2"/>
<path d="M12.5 6.40912C9.49996 6.40912 7.04541 8.86366 7.04541 11.8637V12C7.04541 9.00003 9.49996 6.54548 12.5 6.54548H24.5V6.40912H12.5Z" fill="#3E2723" fill-opacity="0.2"/>
<defs>
<linearGradient id="paint0_linear_489_289" x1="3.40463" y1="9.27273" x2="10.5637" y2="5.1" gradientUnits="userSpaceOnUse">
<stop stop-color="#A52714" stop-opacity="0.6"/>
<stop offset="0.7" stop-color="#A52714" stop-opacity="0"/>
</linearGradient>
<linearGradient id="paint1_linear_489_289" x1="14.5318" y1="21.4773" x2="6.56818" y2="16.8136" gradientUnits="userSpaceOnUse">
<stop stop-color="#055524" stop-opacity="0.4"/>
<stop offset="0.3" stop-color="#055524" stop-opacity="0"/>
</linearGradient>
<linearGradient id="paint2_linear_489_289" x1="16.1682" y1="5.83638" x2="18.1728" y2="14.6046" gradientUnits="userSpaceOnUse">
<stop stop-color="#EA6100" stop-opacity="0.3"/>
<stop offset="0.7" stop-color="#EA6100" stop-opacity="0"/>
</linearGradient>
<radialGradient id="paint3_radial_489_289" cx="0" cy="0" r="1" gradientUnits="userSpaceOnUse" gradientTransform="translate(11.9818 6.54547) scale(11.4682)">
<stop stop-color="#3E2723" stop-opacity="0.2"/>
<stop offset="1" stop-color="#3E2723" stop-opacity="0"/>
</radialGradient>
<radialGradient id="paint4_radial_489_289" cx="0" cy="0" r="1" gradientUnits="userSpaceOnUse" gradientTransform="translate(2.39554 5.52271) scale(10.6364)">
<stop stop-color="#3E2723" stop-opacity="0.2"/>
<stop offset="1" stop-color="#3E2723" stop-opacity="0"/>
</radialGradient>
<radialGradient id="paint5_radial_489_289" cx="0" cy="0" r="1" gradientUnits="userSpaceOnUse" gradientTransform="translate(12.4727 12.0137) scale(11.9864 11.9864)">
<stop stop-color="#263238" stop-opacity="0.2"/>
<stop offset="1" stop-color="#263238" stop-opacity="0"/>
</radialGradient>
<radialGradient id="paint6_radial_489_289" cx="0" cy="0" r="1" gradientUnits="userSpaceOnUse" gradientTransform="translate(4.08636 3.27273) scale(24.1091)">
<stop stop-color="white" stop-opacity="0.1"/>
<stop offset="1" stop-color="white" stop-opacity="0"/>
</radialGradient>
</defs>
</svg>
