<svg width="23" height="28" viewBox="0 0 23 28" fill="none" xmlns="http://www.w3.org/2000/svg">
<g clip-path="url(#clip0_402_297)">
<path d="M19.5112 2.60166C18.2593 1.18175 15.9964 0.572998 13.1013 0.572998H4.69913C4.41268 0.572954 4.13561 0.674625 3.91777 0.859721C3.69993 1.04482 3.55561 1.30119 3.51077 1.58273L0.0122525 23.6626C-0.0572865 24.098 0.281514 24.4922 0.724983 24.4922H5.9122L7.21494 16.2697L7.17451 16.5271C7.26731 15.9459 7.76685 15.5172 8.35838 15.5172H10.8233C15.6657 15.5172 19.4574 13.56 20.565 7.89813C20.5979 7.73068 20.6264 7.5677 20.651 7.40847C20.5112 7.3348 20.5112 7.3348 20.651 7.40847C20.9808 5.31579 20.6487 3.89132 19.5112 2.60166Z" fill="#27346A"/>
<path d="M9.19977 6.65461C9.34154 6.58731 9.49667 6.55249 9.65374 6.55269H16.2409C17.0209 6.55269 17.7485 6.60321 18.4133 6.70969C18.5994 6.73923 18.7844 6.77447 18.9683 6.81536C19.2289 6.87259 19.4864 6.94262 19.7401 7.02519C20.0669 7.13382 20.3713 7.26033 20.6511 7.40847C20.9808 5.31498 20.6487 3.89132 19.5112 2.60166C18.2586 1.18175 15.9964 0.572998 13.1013 0.572998H4.69841C4.10679 0.572998 3.60349 1.0016 3.51077 1.58273L0.012253 23.6618C-0.057286 24.0979 0.281515 24.4916 0.724265 24.4916H5.9122L8.61497 7.436C8.64157 7.26837 8.70869 7.10967 8.81055 6.97356C8.91242 6.83745 9.04599 6.72799 9.19977 6.65461Z" fill="#27346A"/>
<path d="M20.565 7.89811C19.4574 13.5592 15.6658 15.5172 10.8233 15.5172H8.35766C7.76612 15.5172 7.2665 15.9459 7.17459 16.5271L5.5539 26.7509C5.49335 27.1319 5.78947 27.4772 6.17688 27.4772H10.5496C10.8001 27.4772 11.0423 27.3882 11.2327 27.2262C11.4232 27.0643 11.5493 26.8401 11.5884 26.5939L11.631 26.3722L12.4552 21.1746L12.5083 20.8873C12.5474 20.6412 12.6735 20.417 12.8639 20.255C13.0543 20.0931 13.2966 20.0041 13.547 20.004H14.2015C18.4373 20.004 21.7541 18.2916 22.7233 13.339C23.1279 11.2693 22.9185 9.54127 21.8483 8.32752C21.5237 7.95989 21.1206 7.65628 20.651 7.40845C20.6256 7.56848 20.598 7.73066 20.565 7.89811Z" fill="#2790C3"/>
<path d="M19.4918 6.94858C19.3191 6.89841 19.1447 6.85398 18.969 6.81537C18.7851 6.77513 18.6 6.74013 18.4141 6.71041C17.7485 6.60322 17.0215 6.55261 16.2408 6.55261H9.65441C9.49723 6.55235 9.34204 6.58747 9.20043 6.65534C9.04645 6.72846 8.91271 6.83783 8.81079 6.97399C8.70888 7.11015 8.64186 7.26898 8.61555 7.43673L7.2156 16.2697L7.17517 16.5271C7.26726 15.9459 7.76679 15.5172 8.35841 15.5172H10.8241C15.6665 15.5172 19.4581 13.56 20.5657 7.89814C20.5986 7.73069 20.6263 7.56842 20.6517 7.40848C20.3713 7.26126 20.0676 7.13374 19.7407 7.02592C19.6582 6.9987 19.5753 6.97292 19.4918 6.94858" fill="#1F264F"/>
</g>
<defs>
<clipPath id="clip0_402_297">
<rect width="23" height="27" fill="white" transform="translate(0 0.5)"/>
</clipPath>
</defs>
</svg>
